<mxfile host="app.diagrams.net" modified="2020-10-27T03:53:08.982Z" agent="5.0 (Windows NT 10.0; Win64; x64) AppleWebKit/537.36 (KHTML, like Gecko) Chrome/86.0.4240.111 Safari/537.36" etag="zIzYSgOm7kMFnokgLP8r" version="13.8.3" type="github" pages="2">
  <diagram id="OEY6qeFJupdgmqvY-Riq" name="Use case diagram">
    <mxGraphModel dx="1422" dy="1894" grid="1" gridSize="10" guides="1" tooltips="1" connect="1" arrows="1" fold="1" page="1" pageScale="1" pageWidth="850" pageHeight="1100" math="0" shadow="0">
      <root>
        <mxCell id="0" />
        <mxCell id="1" parent="0" />
        <mxCell id="YF6hbPf3GCcN0d8PsmIc-11" style="edgeStyle=orthogonalEdgeStyle;rounded=0;orthogonalLoop=1;jettySize=auto;html=1;exitX=0.5;exitY=0.5;exitDx=0;exitDy=0;exitPerimeter=0;" parent="1" source="YF6hbPf3GCcN0d8PsmIc-1" target="YF6hbPf3GCcN0d8PsmIc-3" edge="1">
          <mxGeometry relative="1" as="geometry" />
        </mxCell>
        <mxCell id="YF6hbPf3GCcN0d8PsmIc-87" style="edgeStyle=none;rounded=0;orthogonalLoop=1;jettySize=auto;html=1;exitX=1;exitY=1;exitDx=0;exitDy=0;exitPerimeter=0;entryX=0;entryY=0;entryDx=0;entryDy=0;" parent="1" source="YF6hbPf3GCcN0d8PsmIc-1" target="YF6hbPf3GCcN0d8PsmIc-16" edge="1">
          <mxGeometry relative="1" as="geometry" />
        </mxCell>
        <mxCell id="YF6hbPf3GCcN0d8PsmIc-1" value="Controller" style="shape=umlActor;verticalLabelPosition=bottom;verticalAlign=top;html=1;outlineConnect=0;" parent="1" vertex="1">
          <mxGeometry x="70" y="70" width="30" height="60" as="geometry" />
        </mxCell>
        <mxCell id="YF6hbPf3GCcN0d8PsmIc-15" style="rounded=0;orthogonalLoop=1;jettySize=auto;html=1;exitX=1;exitY=1;exitDx=0;exitDy=0;entryX=0;entryY=0;entryDx=0;entryDy=0;" parent="1" source="YF6hbPf3GCcN0d8PsmIc-3" target="YF6hbPf3GCcN0d8PsmIc-75" edge="1">
          <mxGeometry relative="1" as="geometry">
            <mxPoint x="355" y="215" as="targetPoint" />
          </mxGeometry>
        </mxCell>
        <mxCell id="YF6hbPf3GCcN0d8PsmIc-18" style="edgeStyle=orthogonalEdgeStyle;rounded=0;orthogonalLoop=1;jettySize=auto;html=1;exitX=0.5;exitY=1;exitDx=0;exitDy=0;entryX=0.5;entryY=0;entryDx=0;entryDy=0;" parent="1" source="YF6hbPf3GCcN0d8PsmIc-3" target="YF6hbPf3GCcN0d8PsmIc-16" edge="1">
          <mxGeometry relative="1" as="geometry" />
        </mxCell>
        <mxCell id="YF6hbPf3GCcN0d8PsmIc-51" style="edgeStyle=orthogonalEdgeStyle;rounded=0;orthogonalLoop=1;jettySize=auto;html=1;exitX=0.5;exitY=0;exitDx=0;exitDy=0;entryX=0;entryY=0.5;entryDx=0;entryDy=0;" parent="1" source="YF6hbPf3GCcN0d8PsmIc-3" target="YF6hbPf3GCcN0d8PsmIc-4" edge="1">
          <mxGeometry relative="1" as="geometry" />
        </mxCell>
        <mxCell id="YF6hbPf3GCcN0d8PsmIc-3" value="Simulator control panel" style="ellipse;whiteSpace=wrap;html=1;" parent="1" vertex="1">
          <mxGeometry x="160" y="75" width="100" height="50" as="geometry" />
        </mxCell>
        <mxCell id="YF6hbPf3GCcN0d8PsmIc-41" style="edgeStyle=orthogonalEdgeStyle;rounded=0;orthogonalLoop=1;jettySize=auto;html=1;exitX=1;exitY=0.5;exitDx=0;exitDy=0;entryX=0;entryY=0.5;entryDx=0;entryDy=0;" parent="1" source="YF6hbPf3GCcN0d8PsmIc-4" target="YF6hbPf3GCcN0d8PsmIc-27" edge="1">
          <mxGeometry relative="1" as="geometry" />
        </mxCell>
        <mxCell id="YF6hbPf3GCcN0d8PsmIc-4" value="Activate customer panel" style="ellipse;whiteSpace=wrap;html=1;" parent="1" vertex="1">
          <mxGeometry x="290" y="-40" width="120" height="50" as="geometry" />
        </mxCell>
        <mxCell id="YF6hbPf3GCcN0d8PsmIc-21" style="edgeStyle=orthogonalEdgeStyle;rounded=0;orthogonalLoop=1;jettySize=auto;html=1;entryX=0.5;entryY=0;entryDx=0;entryDy=0;" parent="1" source="YF6hbPf3GCcN0d8PsmIc-5" target="YF6hbPf3GCcN0d8PsmIc-4" edge="1">
          <mxGeometry relative="1" as="geometry" />
        </mxCell>
        <mxCell id="YF6hbPf3GCcN0d8PsmIc-5" value="Customer" style="shape=umlActor;verticalLabelPosition=bottom;verticalAlign=top;html=1;outlineConnect=0;" parent="1" vertex="1">
          <mxGeometry x="335" y="-180" width="30" height="60" as="geometry" />
        </mxCell>
        <mxCell id="YF6hbPf3GCcN0d8PsmIc-20" style="rounded=0;orthogonalLoop=1;jettySize=auto;html=1;entryX=0;entryY=1;entryDx=0;entryDy=0;" parent="1" source="YF6hbPf3GCcN0d8PsmIc-6" target="YF6hbPf3GCcN0d8PsmIc-75" edge="1">
          <mxGeometry relative="1" as="geometry">
            <mxPoint x="385" y="340" as="targetPoint" />
          </mxGeometry>
        </mxCell>
        <mxCell id="YF6hbPf3GCcN0d8PsmIc-6" value="Maintainer" style="shape=umlActor;verticalLabelPosition=bottom;verticalAlign=top;html=1;outlineConnect=0;" parent="1" vertex="1">
          <mxGeometry x="260" y="210" width="30" height="60" as="geometry" />
        </mxCell>
        <mxCell id="YF6hbPf3GCcN0d8PsmIc-16" value="Activate machinery panel" style="ellipse;whiteSpace=wrap;html=1;" parent="1" vertex="1">
          <mxGeometry x="155" y="340" width="110" height="50" as="geometry" />
        </mxCell>
        <mxCell id="YF6hbPf3GCcN0d8PsmIc-38" style="edgeStyle=orthogonalEdgeStyle;rounded=0;orthogonalLoop=1;jettySize=auto;html=1;exitX=0.5;exitY=0;exitDx=0;exitDy=0;entryX=0.5;entryY=1;entryDx=0;entryDy=0;dashed=1;dashPattern=1 4;" parent="1" source="YF6hbPf3GCcN0d8PsmIc-22" target="YF6hbPf3GCcN0d8PsmIc-23" edge="1">
          <mxGeometry relative="1" as="geometry" />
        </mxCell>
        <mxCell id="YF6hbPf3GCcN0d8PsmIc-44" style="edgeStyle=orthogonalEdgeStyle;rounded=0;orthogonalLoop=1;jettySize=auto;html=1;exitX=0.5;exitY=1;exitDx=0;exitDy=0;entryX=0.5;entryY=0;entryDx=0;entryDy=0;dashed=1;dashPattern=1 4;" parent="1" source="YF6hbPf3GCcN0d8PsmIc-22" target="YF6hbPf3GCcN0d8PsmIc-43" edge="1">
          <mxGeometry relative="1" as="geometry" />
        </mxCell>
        <mxCell id="YF6hbPf3GCcN0d8PsmIc-46" style="edgeStyle=orthogonalEdgeStyle;rounded=0;orthogonalLoop=1;jettySize=auto;html=1;exitX=1;exitY=0.5;exitDx=0;exitDy=0;" parent="1" source="YF6hbPf3GCcN0d8PsmIc-22" target="YF6hbPf3GCcN0d8PsmIc-32" edge="1">
          <mxGeometry relative="1" as="geometry" />
        </mxCell>
        <mxCell id="YF6hbPf3GCcN0d8PsmIc-22" value="insert coins to purchase" style="ellipse;whiteSpace=wrap;html=1;" parent="1" vertex="1">
          <mxGeometry x="605" y="-40" width="120" height="50" as="geometry" />
        </mxCell>
        <mxCell id="YF6hbPf3GCcN0d8PsmIc-23" value="Validate the insert coins" style="ellipse;whiteSpace=wrap;html=1;" parent="1" vertex="1">
          <mxGeometry x="605" y="-120" width="120" height="50" as="geometry" />
        </mxCell>
        <mxCell id="YF6hbPf3GCcN0d8PsmIc-25" value="inclusive&lt;br&gt;" style="text;html=1;strokeColor=none;fillColor=none;align=center;verticalAlign=middle;whiteSpace=wrap;rounded=0;" parent="1" vertex="1">
          <mxGeometry x="675" y="-60" width="40" height="20" as="geometry" />
        </mxCell>
        <mxCell id="YF6hbPf3GCcN0d8PsmIc-40" style="edgeStyle=orthogonalEdgeStyle;rounded=0;orthogonalLoop=1;jettySize=auto;html=1;exitX=0.5;exitY=0;exitDx=0;exitDy=0;entryX=0.5;entryY=1;entryDx=0;entryDy=0;dashed=1;dashPattern=1 4;" parent="1" source="YF6hbPf3GCcN0d8PsmIc-27" target="YF6hbPf3GCcN0d8PsmIc-29" edge="1">
          <mxGeometry relative="1" as="geometry" />
        </mxCell>
        <mxCell id="YF6hbPf3GCcN0d8PsmIc-42" style="edgeStyle=orthogonalEdgeStyle;rounded=0;orthogonalLoop=1;jettySize=auto;html=1;exitX=1;exitY=0.5;exitDx=0;exitDy=0;entryX=0;entryY=0.5;entryDx=0;entryDy=0;" parent="1" source="YF6hbPf3GCcN0d8PsmIc-27" target="YF6hbPf3GCcN0d8PsmIc-22" edge="1">
          <mxGeometry relative="1" as="geometry" />
        </mxCell>
        <mxCell id="YF6hbPf3GCcN0d8PsmIc-27" value="Select brand" style="ellipse;whiteSpace=wrap;html=1;" parent="1" vertex="1">
          <mxGeometry x="445" y="-40" width="120" height="50" as="geometry" />
        </mxCell>
        <mxCell id="YF6hbPf3GCcN0d8PsmIc-29" value="Check availability of the selected brand" style="ellipse;whiteSpace=wrap;html=1;" parent="1" vertex="1">
          <mxGeometry x="445" y="-120" width="120" height="50" as="geometry" />
        </mxCell>
        <mxCell id="YF6hbPf3GCcN0d8PsmIc-31" value="inclusive&lt;br&gt;" style="text;html=1;strokeColor=none;fillColor=none;align=center;verticalAlign=middle;whiteSpace=wrap;rounded=0;" parent="1" vertex="1">
          <mxGeometry x="525" y="-60" width="40" height="20" as="geometry" />
        </mxCell>
        <mxCell id="YF6hbPf3GCcN0d8PsmIc-48" style="edgeStyle=orthogonalEdgeStyle;rounded=0;orthogonalLoop=1;jettySize=auto;html=1;exitX=1;exitY=0.5;exitDx=0;exitDy=0;" parent="1" source="YF6hbPf3GCcN0d8PsmIc-32" target="YF6hbPf3GCcN0d8PsmIc-47" edge="1">
          <mxGeometry relative="1" as="geometry" />
        </mxCell>
        <mxCell id="YF6hbPf3GCcN0d8PsmIc-32" value="Dispense drink" style="ellipse;whiteSpace=wrap;html=1;" parent="1" vertex="1">
          <mxGeometry x="765" y="-40" width="120" height="50" as="geometry" />
        </mxCell>
        <mxCell id="YF6hbPf3GCcN0d8PsmIc-34" value="Terminate transaction" style="ellipse;whiteSpace=wrap;html=1;" parent="1" vertex="1">
          <mxGeometry x="770" y="-120" width="110" height="50" as="geometry" />
        </mxCell>
        <mxCell id="YF6hbPf3GCcN0d8PsmIc-35" style="edgeStyle=orthogonalEdgeStyle;rounded=0;orthogonalLoop=1;jettySize=auto;html=1;exitX=0.5;exitY=1;exitDx=0;exitDy=0;dashed=1;dashPattern=1 4;" parent="1" edge="1">
          <mxGeometry relative="1" as="geometry">
            <mxPoint x="825" y="-70" as="sourcePoint" />
            <mxPoint x="825" y="-40" as="targetPoint" />
          </mxGeometry>
        </mxCell>
        <mxCell id="YF6hbPf3GCcN0d8PsmIc-36" value="exclusive" style="text;html=1;strokeColor=none;fillColor=none;align=center;verticalAlign=middle;whiteSpace=wrap;rounded=0;" parent="1" vertex="1">
          <mxGeometry x="835" y="-60" width="40" height="20" as="geometry" />
        </mxCell>
        <mxCell id="YF6hbPf3GCcN0d8PsmIc-43" value="Check coin stock&amp;nbsp;" style="ellipse;whiteSpace=wrap;html=1;" parent="1" vertex="1">
          <mxGeometry x="610" y="40" width="110" height="40" as="geometry" />
        </mxCell>
        <mxCell id="YF6hbPf3GCcN0d8PsmIc-45" value="inclusive&lt;br&gt;" style="text;html=1;strokeColor=none;fillColor=none;align=center;verticalAlign=middle;whiteSpace=wrap;rounded=0;" parent="1" vertex="1">
          <mxGeometry x="675" y="10" width="40" height="20" as="geometry" />
        </mxCell>
        <mxCell id="YF6hbPf3GCcN0d8PsmIc-47" value="Dispense changes" style="ellipse;whiteSpace=wrap;html=1;" parent="1" vertex="1">
          <mxGeometry x="915" y="-40" width="120" height="50" as="geometry" />
        </mxCell>
        <mxCell id="YF6hbPf3GCcN0d8PsmIc-53" value="Password verification" style="ellipse;whiteSpace=wrap;html=1;" parent="1" vertex="1">
          <mxGeometry x="350" y="100" width="80" height="40" as="geometry" />
        </mxCell>
        <mxCell id="YF6hbPf3GCcN0d8PsmIc-55" value="inclusive&lt;br&gt;" style="text;html=1;strokeColor=none;fillColor=none;align=center;verticalAlign=middle;whiteSpace=wrap;rounded=0;" parent="1" vertex="1">
          <mxGeometry x="405" y="140" width="40" height="20" as="geometry" />
        </mxCell>
        <mxCell id="YF6hbPf3GCcN0d8PsmIc-56" value="Terminate customer panel" style="ellipse;whiteSpace=wrap;html=1;" parent="1" vertex="1">
          <mxGeometry x="330" y="250" width="120" height="50" as="geometry" />
        </mxCell>
        <mxCell id="YF6hbPf3GCcN0d8PsmIc-61" value="inclusive&lt;br&gt;" style="text;html=1;strokeColor=none;fillColor=none;align=center;verticalAlign=middle;whiteSpace=wrap;rounded=0;" parent="1" vertex="1">
          <mxGeometry x="400" y="230" width="40" height="20" as="geometry" />
        </mxCell>
        <mxCell id="YF6hbPf3GCcN0d8PsmIc-86" style="edgeStyle=none;rounded=0;orthogonalLoop=1;jettySize=auto;html=1;exitX=1;exitY=0.5;exitDx=0;exitDy=0;" parent="1" source="YF6hbPf3GCcN0d8PsmIc-63" target="YF6hbPf3GCcN0d8PsmIc-80" edge="1">
          <mxGeometry relative="1" as="geometry" />
        </mxCell>
        <mxCell id="YF6hbPf3GCcN0d8PsmIc-63" value="Access to information list" style="ellipse;whiteSpace=wrap;html=1;" parent="1" vertex="1">
          <mxGeometry x="500" y="170" width="120" height="50" as="geometry" />
        </mxCell>
        <mxCell id="YF6hbPf3GCcN0d8PsmIc-74" style="edgeStyle=orthogonalEdgeStyle;rounded=0;orthogonalLoop=1;jettySize=auto;html=1;exitX=0.5;exitY=0;exitDx=0;exitDy=0;entryX=0.5;entryY=1;entryDx=0;entryDy=0;dashed=1;dashPattern=1 4;" parent="1" source="YF6hbPf3GCcN0d8PsmIc-65" target="YF6hbPf3GCcN0d8PsmIc-63" edge="1">
          <mxGeometry relative="1" as="geometry" />
        </mxCell>
        <mxCell id="YF6hbPf3GCcN0d8PsmIc-65" value="dispense cash" style="ellipse;whiteSpace=wrap;html=1;" parent="1" vertex="1">
          <mxGeometry x="500" y="250" width="120" height="50" as="geometry" />
        </mxCell>
        <mxCell id="YF6hbPf3GCcN0d8PsmIc-72" style="edgeStyle=orthogonalEdgeStyle;rounded=0;orthogonalLoop=1;jettySize=auto;html=1;exitX=0.5;exitY=1;exitDx=0;exitDy=0;entryX=0.5;entryY=0;entryDx=0;entryDy=0;dashed=1;dashPattern=1 4;" parent="1" source="YF6hbPf3GCcN0d8PsmIc-66" target="YF6hbPf3GCcN0d8PsmIc-63" edge="1">
          <mxGeometry relative="1" as="geometry" />
        </mxCell>
        <mxCell id="YF6hbPf3GCcN0d8PsmIc-66" value="Update price" style="ellipse;whiteSpace=wrap;html=1;" parent="1" vertex="1">
          <mxGeometry x="500" y="90" width="120" height="50" as="geometry" />
        </mxCell>
        <mxCell id="YF6hbPf3GCcN0d8PsmIc-69" value="exclusive" style="text;html=1;strokeColor=none;fillColor=none;align=center;verticalAlign=middle;whiteSpace=wrap;rounded=0;" parent="1" vertex="1">
          <mxGeometry x="570" y="150" width="40" height="20" as="geometry" />
        </mxCell>
        <mxCell id="YF6hbPf3GCcN0d8PsmIc-70" value="exclusive" style="text;html=1;strokeColor=none;fillColor=none;align=center;verticalAlign=middle;whiteSpace=wrap;rounded=0;" parent="1" vertex="1">
          <mxGeometry x="570" y="230" width="40" height="20" as="geometry" />
        </mxCell>
        <mxCell id="YF6hbPf3GCcN0d8PsmIc-77" style="edgeStyle=orthogonalEdgeStyle;rounded=0;orthogonalLoop=1;jettySize=auto;html=1;exitX=0.5;exitY=0;exitDx=0;exitDy=0;entryX=0.5;entryY=1;entryDx=0;entryDy=0;dashed=1;dashPattern=1 4;" parent="1" source="YF6hbPf3GCcN0d8PsmIc-75" target="YF6hbPf3GCcN0d8PsmIc-53" edge="1">
          <mxGeometry relative="1" as="geometry" />
        </mxCell>
        <mxCell id="YF6hbPf3GCcN0d8PsmIc-78" style="edgeStyle=orthogonalEdgeStyle;rounded=0;orthogonalLoop=1;jettySize=auto;html=1;entryX=0.5;entryY=0;entryDx=0;entryDy=0;dashed=1;dashPattern=1 4;" parent="1" source="YF6hbPf3GCcN0d8PsmIc-75" target="YF6hbPf3GCcN0d8PsmIc-56" edge="1">
          <mxGeometry relative="1" as="geometry" />
        </mxCell>
        <mxCell id="YF6hbPf3GCcN0d8PsmIc-79" style="edgeStyle=none;rounded=0;orthogonalLoop=1;jettySize=auto;html=1;exitX=1;exitY=0.5;exitDx=0;exitDy=0;" parent="1" source="YF6hbPf3GCcN0d8PsmIc-75" target="YF6hbPf3GCcN0d8PsmIc-63" edge="1">
          <mxGeometry relative="1" as="geometry" />
        </mxCell>
        <mxCell id="YF6hbPf3GCcN0d8PsmIc-75" value="Activate maintenance panel" style="ellipse;whiteSpace=wrap;html=1;" parent="1" vertex="1">
          <mxGeometry x="330" y="170" width="120" height="50" as="geometry" />
        </mxCell>
        <mxCell id="YF6hbPf3GCcN0d8PsmIc-83" style="edgeStyle=none;rounded=0;orthogonalLoop=1;jettySize=auto;html=1;entryX=0.5;entryY=1;entryDx=0;entryDy=0;dashed=1;dashPattern=1 4;" parent="1" source="YF6hbPf3GCcN0d8PsmIc-80" target="YF6hbPf3GCcN0d8PsmIc-81" edge="1">
          <mxGeometry relative="1" as="geometry" />
        </mxCell>
        <mxCell id="YF6hbPf3GCcN0d8PsmIc-80" value="Log out maintenance panel" style="ellipse;whiteSpace=wrap;html=1;" parent="1" vertex="1">
          <mxGeometry x="690" y="170" width="120" height="50" as="geometry" />
        </mxCell>
        <mxCell id="YF6hbPf3GCcN0d8PsmIc-81" value="Verify machine door state" style="ellipse;whiteSpace=wrap;html=1;" parent="1" vertex="1">
          <mxGeometry x="705" y="95" width="90" height="50" as="geometry" />
        </mxCell>
        <mxCell id="YF6hbPf3GCcN0d8PsmIc-82" style="edgeStyle=none;rounded=0;orthogonalLoop=1;jettySize=auto;html=1;exitX=0.5;exitY=1;exitDx=0;exitDy=0;" parent="1" source="YF6hbPf3GCcN0d8PsmIc-81" target="YF6hbPf3GCcN0d8PsmIc-81" edge="1">
          <mxGeometry relative="1" as="geometry" />
        </mxCell>
        <mxCell id="YF6hbPf3GCcN0d8PsmIc-95" style="edgeStyle=none;rounded=0;orthogonalLoop=1;jettySize=auto;html=1;exitX=1;exitY=0.5;exitDx=0;exitDy=0;entryX=0;entryY=0.5;entryDx=0;entryDy=0;" parent="1" source="YF6hbPf3GCcN0d8PsmIc-16" target="YF6hbPf3GCcN0d8PsmIc-90" edge="1">
          <mxGeometry relative="1" as="geometry">
            <mxPoint x="290" y="365" as="sourcePoint" />
          </mxGeometry>
        </mxCell>
        <mxCell id="YF6hbPf3GCcN0d8PsmIc-100" style="edgeStyle=none;rounded=0;orthogonalLoop=1;jettySize=auto;html=1;exitX=1;exitY=0.5;exitDx=0;exitDy=0;" parent="1" source="YF6hbPf3GCcN0d8PsmIc-90" target="YF6hbPf3GCcN0d8PsmIc-96" edge="1">
          <mxGeometry relative="1" as="geometry" />
        </mxCell>
        <mxCell id="YF6hbPf3GCcN0d8PsmIc-90" value="Unlock machine door" style="ellipse;whiteSpace=wrap;html=1;" parent="1" vertex="1">
          <mxGeometry x="325" y="340" width="110" height="50" as="geometry" />
        </mxCell>
        <mxCell id="YF6hbPf3GCcN0d8PsmIc-92" value="inclusive&lt;br&gt;" style="text;html=1;strokeColor=none;fillColor=none;align=center;verticalAlign=middle;whiteSpace=wrap;rounded=0;" parent="1" vertex="1">
          <mxGeometry x="765" y="150" width="40" height="20" as="geometry" />
        </mxCell>
        <mxCell id="YF6hbPf3GCcN0d8PsmIc-102" style="edgeStyle=none;rounded=0;orthogonalLoop=1;jettySize=auto;html=1;exitX=1;exitY=0.5;exitDx=0;exitDy=0;" parent="1" source="YF6hbPf3GCcN0d8PsmIc-96" target="YF6hbPf3GCcN0d8PsmIc-101" edge="1">
          <mxGeometry relative="1" as="geometry" />
        </mxCell>
        <mxCell id="YF6hbPf3GCcN0d8PsmIc-96" value="Update information list" style="ellipse;whiteSpace=wrap;html=1;" parent="1" vertex="1">
          <mxGeometry x="480" y="340" width="110" height="50" as="geometry" />
        </mxCell>
        <mxCell id="YF6hbPf3GCcN0d8PsmIc-98" style="edgeStyle=none;rounded=0;orthogonalLoop=1;jettySize=auto;html=1;entryX=0.5;entryY=1;entryDx=0;entryDy=0;dashed=1;dashPattern=1 4;" parent="1" source="YF6hbPf3GCcN0d8PsmIc-97" target="YF6hbPf3GCcN0d8PsmIc-90" edge="1">
          <mxGeometry relative="1" as="geometry" />
        </mxCell>
        <mxCell id="YF6hbPf3GCcN0d8PsmIc-97" value="View information list only" style="ellipse;whiteSpace=wrap;html=1;" parent="1" vertex="1">
          <mxGeometry x="325" y="420" width="110" height="50" as="geometry" />
        </mxCell>
        <mxCell id="YF6hbPf3GCcN0d8PsmIc-99" value="exclusive" style="text;html=1;strokeColor=none;fillColor=none;align=center;verticalAlign=middle;whiteSpace=wrap;rounded=0;" parent="1" vertex="1">
          <mxGeometry x="390" y="400" width="40" height="20" as="geometry" />
        </mxCell>
        <mxCell id="YF6hbPf3GCcN0d8PsmIc-101" value="Lock machine door" style="ellipse;whiteSpace=wrap;html=1;" parent="1" vertex="1">
          <mxGeometry x="640" y="340" width="110" height="50" as="geometry" />
        </mxCell>
      </root>
    </mxGraphModel>
  </diagram>
  <diagram id="3LACMQUW7TDT40uWCJDq" name="activities diagram">
    <mxGraphModel dx="1422" dy="794" grid="1" gridSize="10" guides="1" tooltips="1" connect="1" arrows="1" fold="1" page="1" pageScale="1" pageWidth="850" pageHeight="1100" math="0" shadow="0">
      <root>
        <mxCell id="IqXGDbfGhS7-ZSzoXUOw-0" />
        <mxCell id="IqXGDbfGhS7-ZSzoXUOw-1" parent="IqXGDbfGhS7-ZSzoXUOw-0" />
      </root>
    </mxGraphModel>
  </diagram>
</mxfile>
